<svg width="39" height="39" viewBox="0 0 39 39" fill="none" xmlns="http://www.w3.org/2000/svg">
<path d="M19.5762 34.6376C27.9899 34.6376 34.8105 27.817 34.8105 19.4033C34.8105 10.9895 27.9899 4.16888 19.5762 4.16888C11.1625 4.16888 4.3418 10.9895 4.3418 19.4033C4.3418 27.817 11.1625 34.6376 19.5762 34.6376Z" fill="#FF525D"/>
<path d="M19.5762 28.0396C26.1679 28.0396 31.5116 22.696 31.5116 16.1043C31.5116 9.51253 26.1679 4.16888 19.5762 4.16888C12.9845 4.16888 7.64081 9.51253 7.64081 16.1043C7.64081 22.696 12.9845 28.0396 19.5762 28.0396Z" fill="#FF6E7C"/>
<path d="M28.2598 6.53857V31.916C25.7122 33.6916 22.6815 34.6436 19.5762 34.6436C16.4708 34.6436 13.4402 33.6916 10.8926 31.916V6.53857H28.2598Z" fill="#FFD15C"/>
<path d="M14.4125 6.53857V33.7365C13.1648 33.2859 11.9814 32.6739 10.8926 31.916V6.53857H14.4125Z" fill="#EDBB4C"/>
<path d="M19.5762 35.3994C16.4385 35.4006 13.3698 34.4787 10.7524 32.7484C8.13496 31.0181 6.08445 28.5559 4.85632 25.6686C3.62818 22.7813 3.27669 19.5964 3.84564 16.5108C4.41458 13.4252 5.87882 10.5751 8.05594 8.31568C8.12536 8.24366 8.20829 8.18601 8.29999 8.14604C8.39169 8.10607 8.49036 8.08455 8.59037 8.08271C8.69039 8.08087 8.78979 8.09875 8.88289 8.13532C8.976 8.1719 9.06099 8.22645 9.13301 8.29587C9.20503 8.36529 9.26268 8.44822 9.30265 8.53992C9.34262 8.63162 9.36414 8.73029 9.36598 8.83031C9.36782 8.93032 9.34994 9.02972 9.31337 9.12283C9.27679 9.21593 9.22224 9.30092 9.15282 9.37294C7.17472 11.4264 5.84722 14.0183 5.33693 16.8235C4.82664 19.6287 5.15631 22.5221 6.28455 25.1406C7.41278 27.7591 9.28933 29.986 11.6786 31.5418C14.068 33.0976 16.8636 33.913 19.7147 33.8857C22.5658 33.8583 25.3453 32.9895 27.7043 31.3881C30.0634 29.7868 31.8969 27.5243 32.9747 24.8846C34.0525 22.245 34.3266 19.3458 33.7626 16.5509C33.1986 13.756 31.8216 11.19 29.8045 9.1749C29.6658 9.03123 29.589 8.83882 29.5907 8.6391C29.5925 8.43938 29.6726 8.24833 29.8138 8.10711C29.955 7.96588 30.1461 7.88577 30.3458 7.88403C30.5455 7.8823 30.7379 7.95907 30.8816 8.09783C33.1165 10.3349 34.6382 13.1841 35.2545 16.2856C35.8708 19.3871 35.554 22.6017 34.3442 25.5232C33.1344 28.4448 31.0859 30.9422 28.4574 32.7C25.8288 34.4578 22.7383 35.3972 19.5762 35.3994Z" fill="black"/>
<path d="M28.2598 29.496C28.0577 29.496 27.864 29.4158 27.7211 29.2729C27.5783 29.1301 27.498 28.9363 27.498 28.7343V6.53857C27.498 6.33655 27.5783 6.14281 27.7211 5.99996C27.864 5.85711 28.0577 5.77686 28.2598 5.77686C28.4618 5.77686 28.6555 5.85711 28.7984 5.99996C28.9412 6.14281 29.0215 6.33655 29.0215 6.53857V28.7343C29.0215 28.9363 28.9412 29.1301 28.7984 29.2729C28.6555 29.4158 28.4618 29.496 28.2598 29.496Z" fill="black"/>
<path d="M25.6242 9.87415C26.3774 9.68365 27.0456 9.24738 27.5229 8.63441C28.0003 8.02143 28.2596 7.26676 28.2598 6.48983C28.2594 5.97652 28.1459 5.4696 27.9273 5.00518C27.7087 4.54076 27.3903 4.13027 26.9949 3.80294C26.5995 3.47562 26.1368 3.23952 25.6397 3.11147C25.1426 2.98342 24.6234 2.96656 24.1191 3.0621C21.117 3.62653 18.0361 3.62653 15.034 3.0621C14.5297 2.96657 14.0104 2.98344 13.5133 3.11149C13.0162 3.23954 12.5534 3.47562 12.158 3.80293C11.7625 4.13024 11.4441 4.54072 11.2254 5.00514C11.0066 5.46956 10.893 5.97649 10.8926 6.48983C10.8927 7.26665 11.1519 8.02125 11.6291 8.63421C12.1063 9.24718 12.7743 9.6835 13.5274 9.87415C17.4966 10.8826 21.655 10.8826 25.6242 9.87415Z" fill="#EDBB4C"/>
<path d="M10.8926 29.6103C10.6906 29.6103 10.4968 29.53 10.354 29.3872C10.2111 29.2443 10.1309 29.0506 10.1309 28.8486V6.53857C10.1309 6.33655 10.2111 6.14281 10.354 5.99996C10.4968 5.85711 10.6906 5.77686 10.8926 5.77686C11.0946 5.77686 11.2883 5.85711 11.4312 5.99996C11.574 6.14281 11.6543 6.33655 11.6543 6.53857V28.8486C11.6543 29.0506 11.574 29.2443 11.4312 29.3872C11.2883 29.53 11.0946 29.6103 10.8926 29.6103Z" fill="black"/>
<path d="M19.5693 11.393C17.4685 11.3929 15.3758 11.1307 13.34 10.6123C12.2529 10.3555 11.3106 9.68122 10.7166 8.73529C10.1227 7.78936 9.92479 6.64769 10.1657 5.55704C10.4067 4.46638 11.0671 3.51433 12.0043 2.90666C12.9415 2.29898 14.0801 2.08448 15.1742 2.30952C18.0829 2.85872 21.0687 2.85872 23.9774 2.30952C25.0721 2.08265 26.2121 2.29607 27.1506 2.90357C28.0892 3.51107 28.7507 4.46376 28.9919 5.5554C29.2332 6.64704 29.0348 7.78977 28.4397 8.73621C27.8446 9.68265 26.9007 10.3566 25.8124 10.6123C25.7148 10.6388 25.6129 10.6457 25.5127 10.6325C25.4125 10.6192 25.3159 10.5862 25.2286 10.5353C25.1412 10.4843 25.0649 10.4165 25.0041 10.3358C24.9432 10.2551 24.899 10.163 24.8741 10.0651C24.8492 9.96708 24.844 9.86513 24.8589 9.76513C24.8738 9.66514 24.9084 9.5691 24.9608 9.48263C25.0132 9.39616 25.0822 9.32098 25.164 9.26148C25.2457 9.20197 25.3384 9.15933 25.4368 9.13604C26.1322 8.96911 26.7342 8.53587 27.1133 7.92954C27.4925 7.32322 27.6184 6.59229 27.4641 5.89404C27.3097 5.1958 26.8874 4.58605 26.288 4.19603C25.6887 3.806 24.9601 3.66687 24.2592 3.80858C21.1635 4.39311 17.9858 4.39311 14.8901 3.80858C14.1929 3.67588 13.4714 3.82005 12.8788 4.21049C12.2862 4.60093 11.869 5.20692 11.7158 5.89987C11.5625 6.59283 11.6854 7.31821 12.0581 7.92212C12.4309 8.52602 13.0243 8.96091 13.7125 9.13452C16.2455 9.77912 18.8675 10.0012 21.4728 9.79188C21.6712 9.78121 21.8658 9.84842 22.0153 9.97919C22.1648 10.11 22.2573 10.2939 22.2731 10.4919C22.2889 10.6899 22.2267 10.8862 22.0999 11.039C21.973 11.1919 21.7915 11.2891 21.594 11.31C20.9196 11.3653 20.2447 11.393 19.5693 11.393Z" fill="black"/>
<path d="M28.2598 22.9841C28.2301 22.9841 28.2004 22.9841 28.1699 22.9788C25.2643 22.6473 22.4491 21.7625 19.8763 20.3722C17.8208 19.2494 15.9462 17.8231 14.3158 16.1416C11.4852 13.2364 10.2512 10.5376 10.2025 10.4241C10.1258 10.2411 10.1235 10.0354 10.1961 9.85079C10.2688 9.66614 10.4106 9.51713 10.5914 9.43545C10.7722 9.35378 10.9778 9.34588 11.1643 9.41344C11.3509 9.481 11.5037 9.6187 11.5903 9.79722C11.6025 9.82312 12.7893 12.4038 15.45 15.1201C16.9733 16.6833 18.7229 18.0085 20.6403 19.0513C23.0329 20.3382 25.6489 21.1575 28.3481 21.4652C28.5422 21.4865 28.7207 21.5816 28.8468 21.7307C28.9728 21.8799 29.0368 22.0717 29.0254 22.2666C29.0141 22.4616 28.9283 22.6447 28.7858 22.7782C28.6433 22.9117 28.455 22.9854 28.2598 22.9841Z" fill="black"/>
<path d="M19.5762 20.0888C19.4091 20.0889 19.2467 20.034 19.1138 19.9327C18.981 19.8313 18.8852 19.6892 18.8411 19.528C18.7971 19.3669 18.8072 19.1957 18.8699 19.0409C18.9327 18.8861 19.0446 18.7562 19.1885 18.6712C25.0598 15.2085 27.5399 9.85129 27.5674 9.79721C27.6505 9.61307 27.8034 9.46949 27.9924 9.39807C28.1813 9.32664 28.391 9.33322 28.5751 9.41635C28.7593 9.49948 28.9028 9.65236 28.9743 9.84135C29.0457 10.0303 29.0391 10.24 28.956 10.4241C28.8493 10.661 26.2694 16.265 19.9677 19.9829C19.8492 20.0532 19.7139 20.0898 19.5762 20.0888Z" fill="black"/>
<path d="M19.5853 7.71012C17.4014 7.71085 15.2261 7.43676 13.1107 6.89432C12.915 6.84381 12.7475 6.71765 12.6448 6.54359C12.5422 6.36953 12.5129 6.16182 12.5634 5.96616C12.6139 5.77051 12.7401 5.60293 12.9141 5.50029C13.0882 5.39765 13.2959 5.36836 13.4916 5.41887C17.4896 6.44249 21.681 6.44249 25.6791 5.41887C25.8747 5.36836 26.0824 5.39765 26.2565 5.50029C26.4305 5.60293 26.5567 5.77051 26.6072 5.96616C26.6577 6.16182 26.6284 6.36953 26.5258 6.54359C26.4231 6.71765 26.2556 6.84381 26.0599 6.89432C23.9445 7.43671 21.7692 7.7108 19.5853 7.71012Z" fill="black"/>
<path d="M22.898 32.2382C22.8482 32.238 22.7984 32.2329 22.7495 32.223C22.7007 32.2131 22.653 32.1986 22.6071 32.1796C22.5611 32.1603 22.517 32.1368 22.4753 32.1095C22.4337 32.0819 22.3949 32.0502 22.3595 32.015C22.3241 31.9798 22.2925 31.941 22.2651 31.8992C22.2374 31.8578 22.2139 31.8136 22.195 31.7675C22.1759 31.7215 22.1614 31.6738 22.1516 31.625C22.1323 31.5269 22.1323 31.426 22.1516 31.328C22.1615 31.279 22.176 31.231 22.195 31.1848C22.2141 31.1389 22.2375 31.0951 22.2651 31.0537C22.2925 31.012 22.3241 30.9732 22.3595 30.938C22.3951 30.9027 22.4339 30.8709 22.4753 30.8427C22.517 30.8154 22.5611 30.7919 22.6071 30.7727C22.7936 30.6955 23.0032 30.6955 23.1898 30.7728C23.3763 30.8501 23.5245 30.9982 23.6019 31.1848C23.6208 31.231 23.6354 31.279 23.6453 31.328C23.6646 31.426 23.6646 31.5269 23.6453 31.625C23.6355 31.6738 23.6209 31.7215 23.6019 31.7675C23.5829 31.8136 23.5595 31.8578 23.5318 31.8992C23.4625 32.0038 23.3683 32.0895 23.2577 32.1486C23.147 32.2078 23.0235 32.2386 22.898 32.2382Z" fill="black"/>
<path d="M23.2789 29.2675C23.077 29.2668 22.8835 29.1866 22.7403 29.0443C22.705 29.0091 22.6733 28.9703 22.6459 28.9286C22.6184 28.8872 22.5949 28.8434 22.5758 28.7975C22.557 28.7515 22.5424 28.7038 22.5324 28.6551C22.5222 28.605 22.5171 28.5539 22.5172 28.5028C22.517 28.4516 22.5221 28.4005 22.5324 28.3504C22.5422 28.3016 22.5568 28.2539 22.5758 28.208C22.5947 28.1618 22.6182 28.1177 22.6459 28.0762C22.6733 28.0345 22.705 27.9957 22.7403 27.9604C22.8292 27.8727 22.938 27.808 23.0574 27.7718C23.1769 27.7355 23.3033 27.7289 23.4259 27.7525C23.4747 27.762 23.5224 27.7766 23.5683 27.7959C23.6609 27.8339 23.745 27.8898 23.8159 27.9604C23.851 27.9959 23.8827 28.0346 23.9103 28.0762C23.938 28.1177 23.9615 28.1618 23.9804 28.208C23.9995 28.2539 24.014 28.3016 24.0238 28.3504C24.0338 28.4006 24.0387 28.4516 24.0383 28.5028C24.0386 28.5539 24.0338 28.6049 24.0238 28.6551C24.0138 28.7038 23.9993 28.7515 23.9804 28.7975C23.942 28.8897 23.8862 28.9735 23.8159 29.0443C23.7801 29.0794 23.7414 29.1112 23.7001 29.1396C23.6584 29.1669 23.6143 29.1904 23.5683 29.2096C23.5223 29.2286 23.4746 29.2431 23.4259 29.253C23.3775 29.2627 23.3282 29.2675 23.2789 29.2675Z" fill="black"/>
<path d="M25.6402 30.7529C25.5904 30.7526 25.5406 30.7478 25.4917 30.7384C25.4429 30.7283 25.3952 30.7135 25.3492 30.6942C25.3032 30.6751 25.2591 30.6516 25.2175 30.6241C25.1339 30.569 25.0624 30.4975 25.0072 30.4139C24.9796 30.3724 24.9561 30.3282 24.9372 30.2821C24.9181 30.2361 24.9036 30.1884 24.8937 30.1397C24.8734 30.0417 24.8734 29.9406 24.8937 29.8426C24.9036 29.7938 24.9181 29.7461 24.9372 29.7002C24.9561 29.654 24.9796 29.6099 25.0072 29.5684C25.0624 29.4848 25.1339 29.4133 25.2175 29.3581C25.2591 29.3306 25.3032 29.3072 25.3492 29.2881C25.3952 29.269 25.4429 29.2545 25.4917 29.2446C25.59 29.2248 25.6912 29.2248 25.7895 29.2446C25.8383 29.2546 25.886 29.2691 25.932 29.2881C25.9778 29.3072 26.0217 29.3306 26.063 29.3581C26.1047 29.3856 26.1435 29.4172 26.1788 29.4526C26.2141 29.488 26.246 29.5268 26.274 29.5684C26.3016 29.6099 26.3251 29.654 26.3441 29.7002C26.3631 29.7461 26.3776 29.7938 26.3875 29.8426C26.4068 29.9407 26.4068 30.0416 26.3875 30.1397C26.3776 30.1884 26.3631 30.2361 26.3441 30.2821C26.3251 30.3282 26.3016 30.3724 26.274 30.4139C26.246 30.4555 26.2141 30.4942 26.1788 30.5297C26.1435 30.565 26.1047 30.5967 26.063 30.6241C26.0217 30.6516 25.9778 30.6751 25.932 30.6942C25.886 30.7134 25.8383 30.7282 25.7895 30.7384C25.7403 30.7478 25.6903 30.7526 25.6402 30.7529Z" fill="black"/>
<path d="M13.1777 18.7565C13.1278 18.7564 13.0781 18.7513 13.0292 18.7413C12.9804 18.7315 12.9327 18.7169 12.8868 18.6979C12.8406 18.679 12.7965 18.6555 12.755 18.6278C12.6714 18.5727 12.5999 18.5011 12.5447 18.4176C12.5171 18.3761 12.4936 18.3319 12.4747 18.2858C12.4553 18.24 12.4407 18.1922 12.4313 18.1434C12.4212 18.0945 12.4161 18.0447 12.416 17.9948C12.416 17.9437 12.4211 17.8926 12.4313 17.8425C12.4409 17.7937 12.4555 17.7459 12.4747 17.7C12.4938 17.6542 12.5172 17.6103 12.5447 17.569C12.5722 17.5273 12.6038 17.4885 12.6392 17.4532C12.6746 17.4178 12.7134 17.386 12.755 17.358C12.7965 17.3303 12.8406 17.3069 12.8868 17.2879C12.9327 17.2689 12.9804 17.2544 13.0292 17.2445C13.1272 17.2247 13.2282 17.2247 13.3263 17.2445C13.375 17.2544 13.4227 17.2689 13.4687 17.2879C13.5149 17.3069 13.559 17.3303 13.6005 17.358C13.6421 17.386 13.6808 17.4178 13.7163 17.4532C13.7516 17.4885 13.7833 17.5273 13.8107 17.569C13.8382 17.6103 13.8617 17.6542 13.8808 17.7C13.9 17.7459 13.9145 17.7937 13.9242 17.8425C13.9344 17.8926 13.9395 17.9437 13.9395 17.9948C13.9393 18.0447 13.9342 18.0945 13.9242 18.1434C13.9147 18.1922 13.9002 18.24 13.8808 18.2858C13.8619 18.3319 13.8384 18.3761 13.8107 18.4176C13.7556 18.5011 13.6841 18.5727 13.6005 18.6278C13.559 18.6555 13.5149 18.679 13.4687 18.6979C13.4239 18.7157 13.3775 18.7292 13.3301 18.7383C13.2801 18.7495 13.229 18.7557 13.1777 18.7565Z" fill="black"/>
<path d="M13.1777 21.2702C13.1278 21.2701 13.0781 21.265 13.0292 21.255C12.9804 21.2451 12.9327 21.2306 12.8867 21.2116C12.8406 21.1926 12.7965 21.1692 12.755 21.1415C12.7132 21.114 12.6744 21.0824 12.6392 21.047C12.604 21.0116 12.5724 20.9728 12.5447 20.9312C12.5172 20.8897 12.4938 20.8455 12.4747 20.7995C12.4553 20.7536 12.4407 20.7059 12.4312 20.657C12.4109 20.5588 12.4109 20.4574 12.4312 20.3592C12.4407 20.3103 12.4553 20.2626 12.4747 20.2168C12.5315 20.0771 12.6292 19.9579 12.755 19.8747C12.7965 19.8471 12.8406 19.8236 12.8867 19.8047C12.9327 19.7856 12.9804 19.7711 13.0292 19.7612C13.1272 19.7414 13.2282 19.7414 13.3263 19.7612C13.375 19.7711 13.4227 19.7856 13.4687 19.8047C13.5148 19.8236 13.559 19.8471 13.6005 19.8747C13.7255 19.9588 13.823 20.0777 13.8808 20.2168C13.9002 20.2626 13.9147 20.3103 13.9242 20.3592C13.9445 20.4574 13.9445 20.5588 13.9242 20.657C13.9147 20.7059 13.9002 20.7536 13.8808 20.7995C13.8617 20.8455 13.8382 20.8897 13.8107 20.9312C13.7831 20.9728 13.7515 21.0116 13.7163 21.047C13.681 21.0824 13.6422 21.114 13.6005 21.1415C13.559 21.1692 13.5148 21.1926 13.4687 21.2116C13.4239 21.2293 13.3774 21.2429 13.3301 21.2519C13.28 21.2632 13.229 21.2693 13.1777 21.2702Z" fill="black"/>
</svg>
